<svg xmlns="http://www.w3.org/2000/svg" viewBox="0 0 1200 300" preserveAspectRatio="xMidYMid slice">
  <defs>
    <linearGradient id="g1" x1="0" y1="0" x2="1" y2="0">
      <stop offset="0%" stop-color="#0ea5a4" stop-opacity="0.12"/>
      <stop offset="100%" stop-color="#06b6d4" stop-opacity="0.08"/>
    </linearGradient>
    <linearGradient id="g2" x1="0" y1="0" x2="0" y2="1">
      <stop offset="0%" stop-color="#ffffff" stop-opacity="0.06"/>
      <stop offset="100%" stop-color="#000000" stop-opacity="0.02"/>
    </linearGradient>
  </defs>

  <!-- Soft background band -->
  <rect width="1200" height="300" fill="url(#g1)" />

  <!-- Simple skyline / community shapes -->
  <g fill="#06202a" fill-opacity="0.06">
    <rect x="40" y="140" width="90" height="70" rx="8" />
    <rect x="150" y="120" width="60" height="90" rx="6" />
    <rect x="230" y="100" width="120" height="110" rx="10" />
    <rect x="370" y="130" width="80" height="80" rx="8" />
    <rect x="470" y="110" width="100" height="100" rx="8" />
    <rect x="590" y="135" width="72" height="65" rx="6" />
    <rect x="690" y="115" width="120" height="95" rx="10" />
    <rect x="840" y="130" width="60" height="70" rx="6" />
    <rect x="920" y="140" width="100" height="60" rx="6" />
  </g>

  <!-- Pins and people (icons) -->
  <g fill="#0ea5a4" fill-opacity="0.18">
    <circle cx="280" cy="190" r="8" />
    <path d="M274 178 a12 12 0 1 1 12 0 v16" />
    <circle cx="560" cy="170" r="8" />
    <path d="M554 158 a12 12 0 1 1 12 0 v16" />
    <circle cx="760" cy="150" r="8" />
    <path d="M754 138 a12 12 0 1 1 12 0 v16" />
  </g>

  <!-- Heartbeat line to hint urgency but subtle -->
  <path d="M40 220 C140 200, 160 240, 260 220 C320 210, 360 240, 420 220 C520 200, 560 240, 660 220 C760 200, 820 240, 920 220 C980 210, 1020 240, 1160 220" stroke="#0ea5a4" stroke-width="2" stroke-opacity="0.12" fill="none" stroke-linecap="round" stroke-linejoin="round"/>

  <!-- Overlay gradient for depth -->
  <rect width="1200" height="300" fill="url(#g2)" />
</svg>